# xmcd
#
# Track frame offsets: 
#        151
#        14663
#        30447
#        46496
#        63970
#        86495
#        105163
#        122919
#        145047
#        160391
#        189416
#        206355
#        225352
#        241120
#        260747
#
# Disc length: 3667 seconds
#
# Revision: 0
# Processed by: cddbd v1.5.1PL0 Copyright (c) Steve Scherf et al.
# Submitted via: ExactAudioCopy v0.95a4
#
DISCID=bc0e510f
DTITLE=Oscar Bentman - The best of
DYEAR=2001
DGENRE=Blues
TTITLE0=Basin Street Blues
TTITLE1=I Feel So Good
TTITLE2=The Day I Got Rid of The Blues
TTITLE3=Bensonhurst Blues
TTITLE4=Helpless
TTITLE5=How can I Just Start Again
TTITLE6=Busted
TTITLE7=If You Go Away
TTITLE8=I Can't Leave You
TTITLE9=St. Lous Blues
TTITLE10=Not The Same Dreams Anymore
TTITLE11=Prisoner Of Love
TTITLE12=I Belive In Love
TTITLE13=It Ain't Nobody's Business
TTITLE14=My Petite Fleur
EXTD=
EXTT0=
EXTT1=
EXTT2=
EXTT3=
EXTT4=
EXTT5=
EXTT6=
EXTT7=
EXTT8=
EXTT9=
EXTT10=
EXTT11=
EXTT12=
EXTT13=
EXTT14=
PLAYORDER=
